<?xml version="1.0" encoding="utf-8"?>
<!-- Generator: Adobe Illustrator 18.1.0, SVG Export Plug-In . SVG Version: 6.00 Build 0)  -->
<!DOCTYPE svg PUBLIC "-//W3C//DTD SVG 1.1//EN" "http://www.w3.org/Graphics/SVG/1.1/DTD/svg11.dtd">
<svg version="1.1" id="Layer_1" xmlns="http://www.w3.org/2000/svg" xmlns:xlink="http://www.w3.org/1999/xlink" x="0px" y="0px"
	 viewBox="0 0 234.7 222.7" enable-background="new 0 0 234.7 222.7" xml:space="preserve">
<g>
	<defs>
		<rect id="SVGID_1_" x="0" y="0" width="234.7" height="222.7"/>
	</defs>
	<clipPath id="SVGID_2_">
		<use xlink:href="#SVGID_1_"  overflow="visible"/>
	</clipPath>
	<path clip-path="url(#SVGID_2_)" fill="#FFFFFF" d="M117.2,219.8c63.3,0,114.6-48.6,114.6-108.5S180.5,2.8,117.2,2.8
		S2.6,51.4,2.6,111.3S53.9,219.8,117.2,219.8"/>
</g>
<g>
	<defs>
		<rect id="SVGID_3_" x="0" y="0" width="234.7" height="222.7"/>
	</defs>
	<clipPath id="SVGID_4_">
		<use xlink:href="#SVGID_3_"  overflow="visible"/>
	</clipPath>
	<path clip-path="url(#SVGID_4_)" fill="#E81D25" d="M206.6,111.8c0,46.4-40,84.1-89.4,84.1c-49.4,0-89.4-37.6-89.4-84.1
		s40-84.1,89.4-84.1C166.5,27.7,206.6,65.3,206.6,111.8"/>
	
		<ellipse clip-path="url(#SVGID_4_)" fill="none" stroke="#998147" stroke-width="0.955" cx="117.1" cy="111.8" rx="89.4" ry="84.1"/>
	
		<ellipse clip-path="url(#SVGID_4_)" fill="none" stroke="#998147" stroke-width="0.955" cx="117.4" cy="111.3" rx="114.6" ry="108.6"/>
	
		<rect x="105.4" y="100.5" transform="matrix(0.7071 -0.7071 0.7071 0.7071 -45.0296 115.7019)" clip-path="url(#SVGID_4_)" fill="#FFFFFF" width="23.4" height="23.4"/>
	<path clip-path="url(#SVGID_4_)" fill="#998147" d="M37.2,166c0,1.4-1.2,2.6-2.6,2.6c-1.4,0-2.6-1.2-2.6-2.6c0-1.4,1.2-2.6,2.6-2.6
		C36,163.3,37.2,164.5,37.2,166"/>
	<circle clip-path="url(#SVGID_4_)" fill="none" stroke="#998147" stroke-width="0.955" cx="34.6" cy="166" r="2.6"/>
	<path clip-path="url(#SVGID_4_)" fill="#998147" d="M203.2,166.4c0,1.4-1.2,2.6-2.6,2.6c-1.4,0-2.6-1.2-2.6-2.6s1.2-2.6,2.6-2.6
		C202,163.8,203.2,164.9,203.2,166.4"/>
	<circle clip-path="url(#SVGID_4_)" fill="none" stroke="#998147" stroke-width="0.955" cx="200.6" cy="166.4" r="2.6"/>
</g>
<text transform="matrix(8.314000e-02 -0.9965 1.3223 0.1103 21.6557 111.8527)" fill="#998147" font-family="'CenturySchoolbook'" font-size="11.0146">O</text>
<g>
	<defs>
		<rect id="SVGID_5_" x="0" y="0" width="234.7" height="222.7"/>
	</defs>
	<clipPath id="SVGID_6_">
		<use xlink:href="#SVGID_5_"  overflow="visible"/>
	</clipPath>
	<path clip-path="url(#SVGID_6_)" fill="none" stroke="#998147" stroke-width="0.955" d="M12.4,105.6c0.4-0.3,0.9-0.6,1.6-0.7
		c0.7-0.1,1.7-0.1,3,0c1.2,0.1,2.1,0.3,2.8,0.5c0.7,0.3,1.2,0.6,1.5,1c0.3,0.4,0.4,0.8,0.4,1.2c-0.1,0.7-0.5,1.2-1.2,1.6
		c-0.8,0.4-2.1,0.5-4,0.3c-1.7-0.1-3-0.5-3.7-1c-0.7-0.5-1.1-1.1-1-1.8C11.9,106.3,12.1,105.9,12.4,105.6z M11.8,108.6
		c0.4,0.6,1,1.1,1.8,1.5c0.8,0.4,1.7,0.6,2.8,0.7c1,0.1,2,0,2.9-0.3c0.9-0.3,1.6-0.7,2.1-1.2c0.5-0.5,0.8-1.1,0.8-1.7
		c0.1-0.6-0.1-1.3-0.6-1.9c-0.4-0.6-1-1.1-1.9-1.5c-0.8-0.4-1.7-0.6-2.8-0.7c-1-0.1-2,0-2.9,0.3c-0.9,0.3-1.6,0.7-2.1,1.2
		c-0.5,0.5-0.8,1.2-0.9,1.8C11.2,107.4,11.4,108,11.8,108.6z"/>
</g>
<text transform="matrix(0.1665 -0.986 1.3084 0.221 22.3539 103.34)" fill="#998147" font-family="'CenturySchoolbook'" font-size="11.0146">T</text>
<g>
	<defs>
		<rect id="SVGID_7_" x="0" y="0" width="234.7" height="222.7"/>
	</defs>
	<clipPath id="SVGID_8_">
		<use xlink:href="#SVGID_7_"  overflow="visible"/>
	</clipPath>
	<path clip-path="url(#SVGID_8_)" fill="none" stroke="#998147" stroke-width="0.955" d="M16,101.9l0.1-0.4c-1.1-0.3-1.9-0.7-2.4-1
		c-0.6-0.5-0.8-0.9-0.7-1.4c0-0.2,0.1-0.3,0.2-0.4c0.1-0.1,0.2-0.1,0.4-0.1l8.4,1.4c0.1,0,0.2,0.1,0.3,0.1c0.1,0.1,0.1,0.2,0.1,0.3
		l-0.2,0.9l0.5,0.1l0.6-3.6l-0.5-0.1l-0.1,0.8c0,0.2-0.1,0.3-0.2,0.3c-0.1,0.1-0.2,0.1-0.4,0l-8.3-1.4c-0.2,0-0.4-0.1-0.4-0.2
		c-0.1-0.1-0.1-0.2-0.1-0.4c0.2-1,1.4-1.5,3.8-1.3l0.1-0.4l-4-0.5l-1.1,6.4L16,101.9z"/>
</g>
<text transform="matrix(0.2435 -0.9699 1.287 0.3231 23.6835 96.0078)" fill="#998147" font-family="'CenturySchoolbook'" font-size="11.0146">T</text>
<g>
	<defs>
		<rect id="SVGID_9_" x="0" y="0" width="234.7" height="222.7"/>
	</defs>
	<clipPath id="SVGID_10_">
		<use xlink:href="#SVGID_9_"  overflow="visible"/>
	</clipPath>
	<path clip-path="url(#SVGID_10_)" fill="none" stroke="#998147" stroke-width="0.955" d="M17.4,94.1l0.1-0.4
		c-1.1-0.4-1.9-0.8-2.3-1.2c-0.5-0.5-0.8-1-0.6-1.5c0-0.2,0.1-0.3,0.2-0.4c0.1-0.1,0.3-0.1,0.4,0l8.3,2.1c0.1,0,0.2,0.1,0.3,0.2
		c0.1,0.1,0.1,0.2,0,0.3l-0.2,0.9l0.5,0.1l0.9-3.6l-0.5-0.1l-0.2,0.8c0,0.2-0.1,0.3-0.2,0.3c-0.1,0.1-0.2,0.1-0.4,0l-8.2-2.1
		c-0.2-0.1-0.4-0.1-0.4-0.2c-0.1-0.1-0.1-0.2,0-0.4c0.3-1,1.5-1.3,3.9-1l0.1-0.4l-3.9-0.8L13.5,93L17.4,94.1z"/>
</g>
<text transform="matrix(0.3219 -0.9468 1.2563 0.4272 25.3922 88.8094)" fill="#998147" font-family="'CenturySchoolbook'" font-size="11.0147">A</text>
<g>
	<defs>
		<rect id="SVGID_11_" x="0" y="0" width="234.7" height="222.7"/>
	</defs>
	<clipPath id="SVGID_12_">
		<use xlink:href="#SVGID_11_"  overflow="visible"/>
	</clipPath>
	<path clip-path="url(#SVGID_12_)" fill="none" stroke="#998147" stroke-width="0.955" d="M23.3,82.7l-0.9,2.7l-4-2.9L23.3,82.7z
		 M24.1,87.1c0.4,0.3,0.7,0.6,0.8,0.8c0.1,0.2,0.1,0.5,0,0.8l0.5,0.2l0.9-2.7L25.8,86l-0.1,0.3c-0.1,0.3-0.3,0.5-0.5,0.6
		c-0.2,0.1-0.4,0.1-0.6,0c-0.2-0.1-0.4-0.2-0.7-0.4l-1.1-0.8l1-3l2.3,0.1c0.1,0,0.2,0,0.3,0c0.1,0,0.2,0.1,0.2,0.2
		c0,0.2,0,0.4-0.1,0.7L26.5,84l0.5,0.2l1-3L27.5,81l-0.1,0.2c-0.1,0.3-0.4,0.5-0.8,0.5l-10.1-0.4l-0.1,0.3L24.1,87.1z"/>
</g>
<text transform="matrix(0.4141 -0.9102 1.2078 0.5495 27.9009 81.2505)" fill="#998147" font-family="'CenturySchoolbook'" font-size="11.0146">W</text>
<g>
	<defs>
		<rect id="SVGID_13_" x="0" y="0" width="234.7" height="222.7"/>
	</defs>
	<clipPath id="SVGID_14_">
		<use xlink:href="#SVGID_13_"  overflow="visible"/>
	</clipPath>
	<path clip-path="url(#SVGID_14_)" fill="none" stroke="#998147" stroke-width="0.955" d="M18.9,76.9c0.1-0.2,0.2-0.4,0.4-0.4
		c0.2-0.1,0.4,0,0.8,0l9.5,1.8l0.2-0.4l-6.3-4.8l7.8,1.5l0.2-0.3L24.3,69c-0.4-0.3-0.6-0.5-0.7-0.7c-0.1-0.2-0.2-0.3-0.3-0.5
		c0-0.2,0-0.3,0-0.6l-0.5-0.2l-1,2.3l0.5,0.2l0.1-0.2c0.1-0.2,0.2-0.3,0.4-0.4c0.2,0,0.4,0,0.7,0.1c0.2,0.1,0.4,0.2,0.6,0.4l4.9,3.7
		l-7-1.4c-0.1,0-0.2,0-0.3-0.1c-0.1-0.1-0.2-0.1-0.2-0.2c0-0.1,0-0.3,0.2-0.6l0.1-0.3l-0.5-0.2l-1.4,3l0.5,0.2l0.2-0.4
		c0.1-0.2,0.2-0.4,0.4-0.4c0.1,0,0.6,0,1.3,0.2l5,3.9l-6.8-1.3l-0.1,0c-0.2,0-0.3-0.1-0.4-0.1c-0.1-0.1-0.2-0.1-0.2-0.2
		c0-0.1,0-0.3,0.1-0.5l0.1-0.2l-0.5-0.2l-1.1,2.4L18.9,76.9z"/>
</g>
<text transform="matrix(0.5023 -0.8647 1.1474 0.6665 32.5368 71.3944)" fill="#998147" font-family="'CenturySchoolbook'" font-size="11.0146">A</text>
<g>
	<defs>
		<rect id="SVGID_15_" x="0" y="0" width="234.7" height="222.7"/>
	</defs>
	<clipPath id="SVGID_16_">
		<use xlink:href="#SVGID_15_"  overflow="visible"/>
	</clipPath>
	<path clip-path="url(#SVGID_16_)" fill="none" stroke="#998147" stroke-width="0.955" d="M31.6,65l-1.4,2.4l-3.3-3.6L31.6,65z
		 M31.5,69.5c0.4,0.4,0.6,0.7,0.6,0.9c0.1,0.2,0,0.5-0.1,0.8l0.5,0.3l1.4-2.5l-0.5-0.3l-0.1,0.2c-0.2,0.3-0.3,0.4-0.6,0.5
		c-0.2,0.1-0.4,0-0.6-0.1c-0.2-0.1-0.4-0.3-0.6-0.5l-0.9-1l1.6-2.7l2.3,0.6c0.1,0,0.2,0.1,0.2,0.1c0.1,0.1,0.2,0.2,0.2,0.3
		c0,0.2-0.1,0.4-0.2,0.7l-0.1,0.2l0.5,0.3l1.6-2.7l-0.5-0.3l-0.1,0.2c-0.2,0.3-0.5,0.4-0.9,0.3l-9.8-2.4l-0.2,0.3L31.5,69.5z"/>
</g>
<text transform="matrix(0.5526 -0.8335 1.1059 0.7332 36.6179 64.4128)" fill="#998147" font-family="'CenturySchoolbook'" font-size="11.0146"> </text>
<text transform="matrix(0.6007 -0.7995 1.0609 0.797 38.3827 61.7885)" fill="#998147" font-family="'CenturySchoolbook'" font-size="11.0146">C</text>
<g>
	<defs>
		<rect id="SVGID_17_" x="0" y="0" width="234.7" height="222.7"/>
	</defs>
	<clipPath id="SVGID_18_">
		<use xlink:href="#SVGID_17_"  overflow="visible"/>
	</clipPath>
	<path clip-path="url(#SVGID_18_)" fill="none" stroke="#998147" stroke-width="0.955" d="M33.1,51.2c-0.3,0.2-0.6,0.4-0.8,0.7
		c-0.4,0.5-0.5,1.1-0.5,1.8c0.1,0.7,0.3,1.5,0.9,2.3c0.5,0.8,1.2,1.6,2.1,2.2c0.8,0.6,1.6,1,2.5,1.2c0.9,0.2,1.6,0.3,2.3,0.1
		s1.2-0.5,1.6-1.1c0.5-0.7,0.6-1.4,0.4-2.2c-0.2-0.8-0.8-1.7-1.7-2.5l-0.2,0.3c0.8,0.8,1.3,1.5,1.5,2.2c0.2,0.7,0.1,1.3-0.3,1.8
		c-0.4,0.6-1.1,0.8-1.9,0.7c-1-0.1-2.1-0.7-3.3-1.6c-1.5-1.1-2.4-2.1-2.8-2.9c-0.4-0.8-0.4-1.5,0-2c0.4-0.5,1-0.7,1.8-0.6
		c0.7,0.1,1.5,0.3,2.6,0.9l0.2-0.3L34,49.6l-0.2,0.3l0.6,0.9C33.8,50.9,33.4,51,33.1,51.2z"/>
</g>
<text transform="matrix(0.67 -0.7424 0.9851 0.889 43.1157 55.2963)" fill="#998147" font-family="'CenturySchoolbook'" font-size="11.0146">H</text>
<g>
	<defs>
		<rect id="SVGID_19_" x="0" y="0" width="234.7" height="222.7"/>
	</defs>
	<clipPath id="SVGID_20_">
		<use xlink:href="#SVGID_19_"  overflow="visible"/>
	</clipPath>
	<path clip-path="url(#SVGID_20_)" fill="none" stroke="#998147" stroke-width="0.955" d="M36,48.2l0.4-0.4c0.1-0.2,0.3-0.2,0.4-0.2
		c0.1,0,0.3,0.2,0.6,0.4l5.7,5.1c0.2,0.2,0.4,0.4,0.4,0.4c0.1,0.1,0.1,0.2,0.1,0.3c0,0.1,0,0.2-0.1,0.3l-0.4,0.5l0.4,0.4l2.3-2.5
		l-0.4-0.4l-0.4,0.5c-0.1,0.2-0.3,0.2-0.5,0.2c-0.1,0-0.3-0.2-0.5-0.4l-2.8-2.5l2.4-2.7l2.7,2.5c0.3,0.3,0.4,0.4,0.5,0.5
		c0.1,0.2,0,0.3-0.1,0.5l-0.4,0.4l0.4,0.4l2.3-2.5l-0.4-0.4L48.2,49c-0.2,0.2-0.3,0.3-0.5,0.2c-0.1,0-0.3-0.1-0.5-0.4l-5.6-5.1
		c-0.3-0.2-0.4-0.4-0.4-0.4c-0.1-0.1-0.1-0.2-0.1-0.3c0-0.1,0.1-0.2,0.2-0.3l0.4-0.5l-0.4-0.4l-2.3,2.5l0.4,0.4l0.4-0.4
		c0.2-0.2,0.3-0.3,0.4-0.2c0.1,0,0.3,0.2,0.6,0.4l2.4,2.2l-2.4,2.7l-2.4-2.2c-0.3-0.3-0.5-0.5-0.5-0.6c0-0.1,0-0.3,0.2-0.4l0.4-0.5
		l-0.4-0.4l-2.3,2.5L36,48.2z"/>
</g>
<text transform="matrix(0.7217 -0.6922 0.9185 0.9577 49.3091 48.5197)" fill="#998147" font-family="'CenturySchoolbook'" font-size="11.0146">I</text>
<g>
	<defs>
		<rect id="SVGID_21_" x="0" y="0" width="234.7" height="222.7"/>
	</defs>
	<clipPath id="SVGID_22_">
		<use xlink:href="#SVGID_21_"  overflow="visible"/>
	</clipPath>
	<path clip-path="url(#SVGID_22_)" fill="none" stroke="#998147" stroke-width="0.955" d="M42.7,41l0.5-0.4c0.2-0.2,0.4-0.3,0.5-0.3
		c0.1,0,0.2,0.1,0.5,0.3l5.5,5.8c0.2,0.2,0.3,0.4,0.4,0.5c0,0.1-0.1,0.3-0.2,0.4l-0.5,0.5l0.4,0.4l2.6-2.5L52,45.3l-0.5,0.5
		C51.3,46,51.1,46,51,46c-0.1,0-0.3-0.1-0.5-0.4L45,39.9c-0.2-0.2-0.3-0.4-0.3-0.5c0-0.1,0.1-0.3,0.3-0.5l0.5-0.4L45,38.1l-2.6,2.5
		L42.7,41z"/>
</g>
<text transform="matrix(0.7691 -0.6391 0.848 1.0206 52.6619 45.2597)" fill="#998147" font-family="'CenturySchoolbook'" font-size="11.0146">N</text>
<g>
	<defs>
		<rect id="SVGID_23_" x="0" y="0" width="234.7" height="222.7"/>
	</defs>
	<clipPath id="SVGID_24_">
		<use xlink:href="#SVGID_23_"  overflow="visible"/>
	</clipPath>
	<path clip-path="url(#SVGID_24_)" fill="none" stroke="#998147" stroke-width="0.955" d="M46.6,37.3l0.3-0.2
		c0.1-0.1,0.3-0.2,0.4-0.2c0.1,0,0.3,0,0.6,0.1l0.2,0l4.6,5.5c0.3,0.3,0.4,0.7,0.5,1.1c0,0.4-0.1,0.7-0.4,1L53,45l2.3-1.9L55,42.7
		c-0.4,0.3-0.7,0.4-1.1,0.3c-0.3-0.1-0.7-0.3-1.1-0.8l-4.1-4.9l9.3,3.5l0.4-0.3L53.1,34c-0.2-0.3-0.4-0.5-0.5-0.8
		c-0.1-0.3-0.1-0.5-0.1-0.7c0-0.2,0.2-0.3,0.4-0.5l-0.3-0.4l-2.1,1.8l0.3,0.4c0.3-0.2,0.6-0.3,0.9-0.2c0.3,0.1,0.7,0.4,1.1,0.8
		l3.8,4.6l-9-3.3l-1.5,1.2L46.6,37.3z"/>
</g>
<text transform="matrix(0.8228 -0.5684 0.7542 1.0917 59.6229 39.5657)" fill="#998147" font-family="'CenturySchoolbook'" font-size="11.0147">E</text>
<g>
	<defs>
		<rect id="SVGID_25_" x="0" y="0" width="234.7" height="222.7"/>
	</defs>
	<clipPath id="SVGID_26_">
		<use xlink:href="#SVGID_25_"  overflow="visible"/>
	</clipPath>
	<path clip-path="url(#SVGID_26_)" fill="none" stroke="#998147" stroke-width="0.955" d="M54.5,30.9l0.5-0.4
		c0.1-0.1,0.3-0.1,0.4-0.1c0.1,0,0.2,0.1,0.3,0.3l4.8,6.9c0.1,0.2,0.2,0.3,0.1,0.4c0,0.1-0.1,0.3-0.3,0.4l-0.4,0.3l0.3,0.4l5.4-3.7
		l-2.1-3.3l-0.3,0.2c1.1,2,1.1,3.3,0,4.1l-1,0.7c-0.1,0.1-0.3,0.1-0.4,0.1c-0.1,0-0.2-0.1-0.3-0.2l-2.4-3.5l0.5-0.4
		c0.3-0.2,0.7-0.3,1.1-0.1c0.4,0.2,0.8,0.6,1.3,1.2l0.3-0.2l-2.8-4l-0.3,0.2c0.4,0.6,0.6,1.1,0.6,1.5c0,0.4-0.1,0.7-0.4,0.9
		l-0.6,0.4l-2.1-3.1c-0.1-0.2-0.2-0.3-0.2-0.4c0-0.1,0.1-0.2,0.2-0.3l1.3-0.9c0.4-0.3,0.9-0.3,1.4-0.1c0.5,0.2,1.1,0.7,1.9,1.6
		l0.3-0.2l-2.1-2.8l-5.2,3.6L54.5,30.9z"/>
</g>
<text transform="matrix(0.8649 -0.5019 0.666 1.1477 66.2243 35.0419)" fill="#998147" font-family="'CenturySchoolbook'" font-size="11.0146">S</text>
<g>
	<defs>
		<rect id="SVGID_27_" x="0" y="0" width="234.7" height="222.7"/>
	</defs>
	<clipPath id="SVGID_28_">
		<use xlink:href="#SVGID_27_"  overflow="visible"/>
	</clipPath>
	<path clip-path="url(#SVGID_28_)" fill="none" stroke="#998147" stroke-width="0.955" d="M64.5,23.8c-0.3,0-0.7,0.1-0.9,0.3
		c-0.6,0.4-0.9,0.9-1,1.6c-0.1,0.7,0.1,1.5,0.6,2.3c0.4,0.8,1,1.3,1.6,1.4c0.4,0.1,1.1,0.1,2-0.1c0.8-0.2,1.4-0.3,1.7-0.3
		c0.3,0,0.6,0.1,0.8,0.3c0.2,0.2,0.4,0.4,0.6,0.7c0.3,0.5,0.4,1,0.3,1.6c-0.1,0.5-0.4,0.9-0.8,1.2c-0.6,0.3-1.2,0.3-2,0
		c-0.8-0.3-1.5-0.9-2.2-1.8l-0.3,0.2l2.1,3.5l0.3-0.2l0-1.2c0.9,0.3,1.7,0.3,2.4-0.2c0.7-0.4,1-1,1.1-1.8c0.1-0.8-0.1-1.6-0.6-2.4
		c-0.3-0.5-0.6-0.8-0.9-1.1c-0.4-0.3-0.7-0.4-1.2-0.5c-0.4,0-1.1,0-2,0.3C65.5,28,65,28,64.8,28c-0.3,0-0.5-0.1-0.8-0.3
		c-0.2-0.2-0.4-0.4-0.6-0.7c-0.3-0.5-0.4-0.9-0.3-1.4c0.1-0.5,0.3-0.8,0.7-1.1c0.5-0.3,1.1-0.3,1.7-0.1c0.6,0.3,1.4,0.8,2.1,1.7
		l0.3-0.2l-2-3.3L65.7,23l0,1C65.3,23.8,64.9,23.8,64.5,23.8z"/>
</g>
<text transform="matrix(0.9017 -0.4323 0.5736 1.1966 72.2304 31.4516)" fill="#998147" font-family="'CenturySchoolbook'" font-size="11.0147">E</text>
<g>
	<defs>
		<rect id="SVGID_29_" x="0" y="0" width="234.7" height="222.7"/>
	</defs>
	<clipPath id="SVGID_30_">
		<use xlink:href="#SVGID_29_"  overflow="visible"/>
	</clipPath>
	<path clip-path="url(#SVGID_30_)" fill="none" stroke="#998147" stroke-width="0.955" d="M68.6,22.1l0.6-0.3c0.1-0.1,0.3-0.1,0.4,0
		c0.1,0,0.2,0.2,0.3,0.3l3.6,7.5c0.1,0.2,0.1,0.3,0.1,0.4c0,0.1-0.1,0.2-0.3,0.3l-0.5,0.2l0.2,0.5l5.9-2.8l-1.6-3.6l-0.3,0.2
		c0.8,2.1,0.6,3.5-0.6,4.1l-1.1,0.5c-0.2,0.1-0.3,0.1-0.4,0.1c-0.1,0-0.2-0.1-0.3-0.3l-1.8-3.8l0.6-0.3c0.4-0.2,0.7-0.1,1.1,0.1
		c0.4,0.2,0.7,0.7,1.1,1.4l0.3-0.2l-2.1-4.4l-0.3,0.2c0.3,0.7,0.4,1.2,0.4,1.6c-0.1,0.4-0.2,0.7-0.6,0.9L72.5,25l-1.6-3.4
		c-0.1-0.2-0.1-0.3-0.1-0.4c0-0.1,0.1-0.2,0.2-0.2l1.4-0.7c0.4-0.2,0.9-0.2,1.4,0.1c0.5,0.3,1,0.9,1.6,1.8l0.3-0.2L74,18.9l-5.7,2.7
		L68.6,22.1z"/>
</g>
<text transform="matrix(0.9258 -0.378 0.5016 1.2284 79.5916 28.0211)" fill="#998147" font-family="'CenturySchoolbook'" font-size="11.0147"> </text>
<text transform="matrix(0.9466 -0.3224 0.4279 1.256 82.5006 26.8177)" fill="#998147" font-family="'CenturySchoolbook'" font-size="11.0146">C</text>
<g>
	<defs>
		<rect id="SVGID_31_" x="0" y="0" width="234.7" height="222.7"/>
	</defs>
	<clipPath id="SVGID_32_">
		<use xlink:href="#SVGID_31_"  overflow="visible"/>
	</clipPath>
	<path clip-path="url(#SVGID_32_)" fill="none" stroke="#998147" stroke-width="0.955" d="M84.2,15.1c-0.4,0-0.7,0-1,0.1
		c-0.6,0.2-1.1,0.6-1.4,1.2c-0.4,0.6-0.5,1.4-0.6,2.4c0,1,0.1,2,0.5,3c0.3,0.9,0.8,1.7,1.4,2.4c0.6,0.7,1.2,1.1,1.9,1.4
		c0.7,0.2,1.3,0.3,1.9,0c0.8-0.3,1.3-0.8,1.6-1.6c0.3-0.8,0.3-1.8,0-3.1L88,21c0.2,1.1,0.2,2,0,2.6c-0.2,0.7-0.7,1.1-1.3,1.3
		c-0.7,0.2-1.4,0.1-2-0.4c-0.7-0.6-1.3-1.7-1.9-3.2c-0.6-1.8-0.8-3.1-0.7-4c0.1-0.9,0.5-1.4,1.2-1.6c0.6-0.2,1.2,0,1.8,0.5
		c0.5,0.4,1.1,1.2,1.7,2.2l0.3-0.1l-1.5-4l-0.3,0.1l0,1.1C84.9,15.3,84.5,15.1,84.2,15.1z"/>
</g>
<text transform="matrix(0.9711 -0.2385 0.3164 1.2886 90.0986 24.1864)" fill="#998147" font-family="'CenturySchoolbook'" font-size="11.0147">O</text>
<g>
	<defs>
		<rect id="SVGID_33_" x="0" y="0" width="234.7" height="222.7"/>
	</defs>
	<clipPath id="SVGID_34_">
		<use xlink:href="#SVGID_33_"  overflow="visible"/>
	</clipPath>
	<path clip-path="url(#SVGID_34_)" fill="none" stroke="#998147" stroke-width="0.955" d="M93.1,13.4c0.4,0.2,0.8,0.7,1.2,1.3
		c0.4,0.6,0.7,1.6,1,2.8c0.3,1.1,0.4,2.1,0.4,2.8c0,0.7-0.2,1.3-0.4,1.7c-0.3,0.4-0.6,0.7-1.1,0.8c-0.6,0.2-1.3-0.1-1.9-0.7
		c-0.6-0.6-1.1-1.8-1.6-3.6c-0.4-1.7-0.5-3-0.3-3.8c0.2-0.9,0.7-1.4,1.4-1.5C92.3,13.1,92.7,13.2,93.1,13.4z M90.1,13.8
		c-0.4,0.6-0.7,1.3-0.8,2.2c-0.1,0.9-0.1,1.8,0.2,2.8c0.3,1,0.6,1.9,1.2,2.7c0.5,0.8,1.1,1.3,1.8,1.6c0.7,0.3,1.3,0.4,1.9,0.2
		c0.6-0.2,1.2-0.5,1.6-1.1c0.5-0.6,0.7-1.3,0.9-2.3c0.1-0.9,0.1-1.9-0.2-2.9c-0.2-1-0.6-1.9-1.2-2.6c-0.5-0.7-1.1-1.3-1.8-1.6
		s-1.3-0.4-2-0.2C91,12.9,90.5,13.2,90.1,13.8z"/>
</g>
<text transform="matrix(0.9901 -0.1406 0.1866 1.3138 98.4315 22.079)" fill="#998147" font-family="'CenturySchoolbook'" font-size="11.0146">M</text>
<g>
	<defs>
		<rect id="SVGID_35_" x="0" y="0" width="234.7" height="222.7"/>
	</defs>
	<clipPath id="SVGID_36_">
		<use xlink:href="#SVGID_35_"  overflow="visible"/>
	</clipPath>
	<path clip-path="url(#SVGID_36_)" fill="none" stroke="#998147" stroke-width="0.955" d="M97.2,12.1l0.7-0.1c0.2,0,0.4,0,0.5,0.1
		c0.1,0.1,0.2,0.2,0.2,0.4l1,7.2c0.1,0.6,0.1,1-0.1,1.3c-0.1,0.3-0.5,0.4-0.9,0.6l0.1,0.5l3-0.4l-0.1-0.5c-0.4,0-0.6,0-0.8-0.1
		c-0.2-0.1-0.3-0.3-0.4-0.5c-0.1-0.2-0.2-0.5-0.3-1l-1.1-7.6l4.2,9.5l0.4-0.1l1.2-10.3l1.3,8.9c0,0.2,0,0.3-0.1,0.4
		c-0.1,0.1-0.2,0.2-0.4,0.2l-0.7,0.1l0.1,0.5l3.6-0.5l-0.1-0.5l-0.6,0.1c-0.2,0-0.4,0-0.5-0.1c-0.1-0.1-0.2-0.2-0.2-0.4l-1.2-8.3
		c0-0.2,0-0.4,0.1-0.5c0.1-0.1,0.2-0.2,0.4-0.2l0.7-0.1l-0.1-0.5l-2.7,0.4l-1,8.6l-3.5-7.9l-2.6,0.4L97.2,12.1z"/>
</g>
<text transform="matrix(0.9995 -3.316000e-02 4.400067e-02 1.3262 108.7514 20.5923)" fill="#998147" font-family="'CenturySchoolbook'" font-size="11.0147">M</text>
<g>
	<defs>
		<rect id="SVGID_37_" x="0" y="0" width="234.7" height="222.7"/>
	</defs>
	<clipPath id="SVGID_38_">
		<use xlink:href="#SVGID_37_"  overflow="visible"/>
	</clipPath>
	<path clip-path="url(#SVGID_38_)" fill="none" stroke="#998147" stroke-width="0.955" d="M108.6,10.6l0.7,0c0.2,0,0.4,0,0.5,0.1
		c0.1,0.1,0.1,0.2,0.1,0.4l0.2,7.3c0,0.6-0.1,1-0.2,1.3c-0.2,0.2-0.5,0.4-1,0.5l0,0.5l3-0.1l0-0.5c-0.4,0-0.6-0.1-0.8-0.2
		c-0.2-0.1-0.3-0.3-0.4-0.5c-0.1-0.2-0.1-0.6-0.2-1l-0.3-7.7l3.2,9.9l0.4,0l2.3-10.1l0.3,9c0,0.2,0,0.3-0.1,0.4
		c-0.1,0.1-0.2,0.2-0.4,0.2l-0.7,0l0,0.5l3.6-0.1l0-0.5l-0.6,0c-0.2,0-0.4,0-0.5-0.1c-0.1-0.1-0.2-0.2-0.2-0.4l-0.3-8.4
		c0-0.2,0-0.4,0.1-0.5c0.1-0.1,0.2-0.1,0.5-0.2l0.7,0l0-0.5l-2.7,0.1l-1.9,8.4l-2.7-8.3l-2.6,0.1L108.6,10.6z"/>
</g>
<text transform="matrix(0.9978 6.666000e-02 -8.843923e-02 1.324 119.1637 20.3678)" fill="#998147" font-family="'CenturySchoolbook'" font-size="11.0146">U</text>
<g>
	<defs>
		<rect id="SVGID_39_" x="0" y="0" width="234.7" height="222.7"/>
	</defs>
	<clipPath id="SVGID_40_">
		<use xlink:href="#SVGID_39_"  overflow="visible"/>
	</clipPath>
	<path clip-path="url(#SVGID_40_)" fill="none" stroke="#998147" stroke-width="0.955" d="M120.1,10.3l0.8,0.1
		c0.2,0,0.3,0.1,0.4,0.2c0.1,0.1,0.1,0.2,0.1,0.4l-0.4,6.4c0,0.6,0,1.2,0.1,1.6c0.2,0.6,0.5,1,0.9,1.3c0.4,0.3,1,0.5,1.8,0.6
		c0.9,0.1,1.7-0.2,2.3-0.9c0.5-0.6,0.8-1.4,0.9-2.6l0.3-5.2c0-0.5,0.1-0.8,0.3-1c0.2-0.2,0.4-0.3,0.8-0.3l0.2,0l0-0.5l-3-0.2l0,0.5
		c0.3,0,0.5,0.1,0.6,0.1c0.1,0.1,0.2,0.2,0.3,0.3c0.1,0.1,0.1,0.3,0.2,0.5c0,0.2,0,0.5,0,1l-0.3,4.8c-0.1,0.8-0.3,1.5-0.7,2
		c-0.4,0.5-1,0.7-1.7,0.6c-0.5,0-0.9-0.2-1.2-0.5c-0.3-0.3-0.5-0.7-0.6-1.2c-0.1-0.3-0.1-0.8,0-1.4l0.4-5.9c0-0.2,0.1-0.3,0.1-0.4
		c0.1-0.1,0.2-0.1,0.4-0.1l0.7,0l0-0.5l-3.7-0.2L120.1,10.3z"/>
</g>
<text transform="matrix(0.9871 0.16 -0.2123 1.3098 128.1607 20.9882)" fill="#998147" font-family="'CenturySchoolbook'" font-size="11.0146">N</text>
<g>
	<defs>
		<rect id="SVGID_41_" x="0" y="0" width="234.7" height="222.7"/>
	</defs>
	<clipPath id="SVGID_42_">
		<use xlink:href="#SVGID_41_"  overflow="visible"/>
	</clipPath>
	<path clip-path="url(#SVGID_42_)" fill="none" stroke="#998147" stroke-width="0.955" d="M130.2,11.1l0.4,0.1
		c0.2,0,0.3,0.1,0.4,0.2c0.1,0.1,0.2,0.2,0.3,0.5l0.1,0.2l-1.1,7.1c-0.1,0.4-0.2,0.8-0.5,1.1c-0.3,0.3-0.6,0.4-1,0.3l-0.1,0.5l3,0.5
		l0.1-0.5c-0.5-0.1-0.8-0.3-0.9-0.6c-0.2-0.3-0.2-0.8-0.1-1.3l1-6.3l3.5,9.3l0.5,0.1l1.3-8.3c0.1-0.3,0.2-0.6,0.3-0.9
		c0.1-0.3,0.3-0.4,0.5-0.5c0.2-0.1,0.4-0.1,0.7-0.1l0.1-0.5l-2.7-0.4l-0.1,0.5c0.4,0.1,0.6,0.3,0.8,0.5c0.2,0.3,0.2,0.8,0.1,1.4
		l-1,5.9l-3.4-9l-1.9-0.3L130.2,11.1z"/>
</g>
<text transform="matrix(0.9732 0.2301 -0.3054 1.2913 137.092 22.462)" fill="#998147" font-family="'CenturySchoolbook'" font-size="11.0147">I</text>
<g>
	<defs>
		<rect id="SVGID_43_" x="0" y="0" width="234.7" height="222.7"/>
	</defs>
	<clipPath id="SVGID_44_">
		<use xlink:href="#SVGID_43_"  overflow="visible"/>
	</clipPath>
	<path clip-path="url(#SVGID_44_)" fill="none" stroke="#998147" stroke-width="0.955" d="M139.8,12.8l0.6,0.1
		c0.3,0.1,0.4,0.2,0.5,0.3c0,0.1,0,0.3,0,0.6l-1.8,7.8c-0.1,0.3-0.2,0.5-0.2,0.6c-0.1,0.1-0.3,0.1-0.5,0l-0.7-0.2l-0.1,0.5l3.6,0.8
		l0.1-0.5l-0.7-0.2c-0.2-0.1-0.4-0.1-0.4-0.3c0-0.1,0-0.3,0-0.6l1.8-7.8c0.1-0.3,0.1-0.5,0.2-0.5c0.1-0.1,0.3-0.1,0.5,0l0.6,0.1
		l0.1-0.5l-3.6-0.8L139.8,12.8z"/>
</g>
<text transform="matrix(0.9565 0.2916 -0.3869 1.2693 141.5395 23.5251)" fill="#998147" font-family="'CenturySchoolbook'" font-size="11.0146">T</text>
<g>
	<defs>
		<rect id="SVGID_45_" x="0" y="0" width="234.7" height="222.7"/>
	</defs>
	<clipPath id="SVGID_46_">
		<use xlink:href="#SVGID_45_"  overflow="visible"/>
	</clipPath>
	<path clip-path="url(#SVGID_46_)" fill="none" stroke="#998147" stroke-width="0.955" d="M143.8,17.3l0.4,0.1
		c0.5-1.1,0.9-1.8,1.3-2.2c0.5-0.5,1-0.7,1.5-0.6c0.2,0.1,0.3,0.1,0.3,0.2c0.1,0.1,0.1,0.3,0,0.4l-2.5,8.2c0,0.1-0.1,0.2-0.2,0.3
		c-0.1,0.1-0.2,0.1-0.3,0l-0.9-0.3l-0.2,0.5l3.5,1.1l0.2-0.5l-0.8-0.2c-0.2,0-0.3-0.1-0.3-0.2c0-0.1,0-0.2,0-0.4l2.5-8.1
		c0.1-0.2,0.1-0.3,0.2-0.4c0.1-0.1,0.3-0.1,0.5,0c1,0.3,1.3,1.6,0.8,3.9l0.4,0.1l1-3.9l-6.2-1.9L143.8,17.3z"/>
</g>
<text transform="matrix(0.9301 0.3674 -0.4875 1.2341 148.6806 25.6731)" fill="#998147" font-family="'CenturySchoolbook'" font-size="11.0146">Y</text>
<g>
	<defs>
		<rect id="SVGID_47_" x="0" y="0" width="234.7" height="222.7"/>
	</defs>
	<clipPath id="SVGID_48_">
		<use xlink:href="#SVGID_47_"  overflow="visible"/>
	</clipPath>
	<path clip-path="url(#SVGID_48_)" fill="none" stroke="#998147" stroke-width="0.955" d="M152.3,16.3c0.3,0.1,0.5,0.3,0.6,0.4
		c0.1,0.1,0.2,0.3,0.2,0.6l0.4,5.7l-1.2,3c-0.1,0.2-0.1,0.3-0.3,0.3c-0.1,0.1-0.3,0-0.4,0l-0.7-0.3l-0.2,0.5l3.4,1.3l0.2-0.5
		l-0.6-0.3c-0.2-0.1-0.3-0.2-0.4-0.3c0-0.1,0-0.2,0-0.4l1.2-3.1l3.3-3.5c0.3-0.3,0.6-0.6,0.9-0.6c0.2-0.1,0.5-0.1,0.9,0.1l0.2-0.5
		l-2.8-1.1l-0.2,0.5l0.3,0.1c0.2,0.1,0.3,0.2,0.4,0.4c0.1,0.2,0,0.4,0,0.6c-0.1,0.2-0.2,0.3-0.3,0.4l-2.7,2.8l-0.3-4.6
		c0-0.1,0-0.2,0.1-0.3c0-0.1,0.1-0.2,0.2-0.2c0.1,0,0.3,0,0.6,0.1l0.4,0.1l0.2-0.5l-3.2-1.3L152.3,16.3z"/>
</g>
<text transform="matrix(0.9071 0.4209 -0.5585 1.2036 155.9153 28.5268)" fill="#998147" font-family="'CenturySchoolbook'" font-size="11.0146"> </text>
<text transform="matrix(0.8831 0.4692 -0.6226 1.1718 158.8369 29.8677)" fill="#998147" font-family="'CenturySchoolbook'" font-size="11.0146">S</text>
<g>
	<defs>
		<rect id="SVGID_49_" x="0" y="0" width="234.7" height="222.7"/>
	</defs>
	<clipPath id="SVGID_50_">
		<use xlink:href="#SVGID_49_"  overflow="visible"/>
	</clipPath>
	<path clip-path="url(#SVGID_50_)" fill="none" stroke="#998147" stroke-width="0.955" d="M167.5,22.5c-0.2-0.3-0.4-0.5-0.7-0.7
		c-0.6-0.3-1.3-0.3-1.9,0c-0.7,0.3-1.2,0.9-1.7,1.7c-0.4,0.8-0.5,1.5-0.4,2.1c0.1,0.5,0.5,1,1.2,1.7c0.6,0.6,1,1,1.1,1.3
		c0.2,0.3,0.2,0.6,0.2,0.8c0,0.3-0.1,0.6-0.2,0.9c-0.3,0.5-0.7,0.9-1.2,1.1c-0.5,0.2-1,0.2-1.4-0.1c-0.6-0.3-0.9-0.9-1.1-1.7
		c-0.2-0.8,0-1.8,0.4-2.8l-0.3-0.2l-1.9,3.6l0.3,0.2l1-0.6c0.2,0.9,0.7,1.6,1.4,1.9c0.7,0.4,1.4,0.4,2.1,0c0.7-0.3,1.3-0.9,1.7-1.8
		c0.3-0.5,0.4-0.9,0.4-1.4c0-0.4,0-0.9-0.2-1.2c-0.2-0.4-0.6-0.9-1.3-1.6c-0.5-0.5-0.8-0.8-0.9-1.1c-0.1-0.2-0.2-0.5-0.2-0.8
		c0-0.3,0.1-0.6,0.3-0.9c0.3-0.5,0.6-0.8,1-1c0.4-0.2,0.9-0.2,1.3,0c0.5,0.3,0.8,0.7,0.9,1.4c0.1,0.7,0,1.6-0.3,2.7l0.3,0.2l1.8-3.4
		l-0.3-0.2l-0.9,0.6C167.8,23.2,167.7,22.8,167.5,22.5z"/>
</g>
<text transform="matrix(0.8434 0.5373 -0.7129 1.1191 165.0835 33.1485)" fill="#998147" font-family="'CenturySchoolbook'" font-size="11.0146">E</text>
<g>
	<defs>
		<rect id="SVGID_51_" x="0" y="0" width="234.7" height="222.7"/>
	</defs>
	<clipPath id="SVGID_52_">
		<use xlink:href="#SVGID_51_"  overflow="visible"/>
	</clipPath>
	<path clip-path="url(#SVGID_52_)" fill="none" stroke="#998147" stroke-width="0.955" d="M171.1,25.1l0.5,0.3
		c0.1,0.1,0.2,0.2,0.2,0.3c0,0.1,0,0.3-0.1,0.4l-4.5,7.1c-0.1,0.2-0.2,0.3-0.3,0.3c-0.1,0-0.3,0-0.5-0.1l-0.5-0.3l-0.3,0.5l5.5,3.5
		l2.2-3.2l-0.3-0.2c-1.4,1.8-2.6,2.3-3.8,1.6l-1-0.7c-0.2-0.1-0.2-0.2-0.3-0.3c0-0.1,0-0.2,0.1-0.4l2.3-3.5l0.5,0.3
		c0.3,0.2,0.5,0.5,0.5,0.9c0,0.4-0.2,1-0.6,1.7l0.3,0.2l2.6-4.1l-0.3-0.2c-0.4,0.6-0.8,1-1.2,1.2c-0.4,0.2-0.7,0.2-1,0l-0.6-0.4
		l2-3.2c0.1-0.2,0.2-0.3,0.3-0.3c0.1,0,0.2,0,0.3,0l1.3,0.8c0.4,0.3,0.6,0.7,0.7,1.2c0,0.5-0.2,1.3-0.7,2.4l0.3,0.2l1.8-3.1
		l-5.3-3.4L171.1,25.1z"/>
</g>
<text transform="matrix(0.7956 0.6058 -0.8038 1.0557 171.8393 37.4202)" fill="#998147" font-family="'CenturySchoolbook'" font-size="11.0147">R</text>
<g>
	<defs>
		<rect id="SVGID_53_" x="0" y="0" width="234.7" height="222.7"/>
	</defs>
	<clipPath id="SVGID_54_">
		<use xlink:href="#SVGID_53_"  overflow="visible"/>
	</clipPath>
	<path clip-path="url(#SVGID_54_)" fill="none" stroke="#998147" stroke-width="0.955" d="M179.8,31.6c0.1-0.2,0.2-0.2,0.4-0.2
		c0.1,0,0.4,0.1,0.7,0.4c0.5,0.4,0.8,0.7,0.9,0.9c0.1,0.2,0.1,0.5,0,0.8c-0.1,0.3-0.3,0.7-0.6,1.2c-0.5,0.6-1,1-1.4,1
		c-0.5,0-1-0.1-1.5-0.5l-0.7-0.6L179.8,31.6z M178.1,29.7l0.6,0.5c0.1,0.1,0.2,0.2,0.2,0.3c0,0.1,0,0.3-0.1,0.4l-5.1,6.7
		c-0.1,0.1-0.2,0.2-0.3,0.2c-0.1,0-0.2,0-0.4-0.1l-0.6-0.5l-0.3,0.4l2.9,2.2l0.3-0.4l-0.6-0.5c-0.1-0.1-0.2-0.2-0.2-0.4
		c0-0.1,0-0.2,0.1-0.4l2.5-3.3l0.5,0.4c0.3,0.2,0.5,0.5,0.6,0.7c0.1,0.3,0.1,0.6,0,0.8c-0.1,0.3-0.3,0.7-0.6,1.2
		c-0.6,0.9-0.9,1.5-1,1.8c-0.1,0.3-0.2,0.6-0.1,0.9c0,0.3,0.2,0.5,0.4,0.6c0.7,0.5,1.5,0.1,2.5-1.1l-0.3-0.2
		c-0.3,0.4-0.6,0.7-0.8,0.8c-0.2,0.1-0.4,0.1-0.4,0.1c-0.1-0.1-0.1-0.2-0.1-0.4c0-0.3,0.2-0.7,0.5-1.2c0.4-0.8,0.6-1.3,0.7-1.6
		c0.1-0.3,0.1-0.6,0.1-0.8c0-0.3-0.2-0.6-0.5-1.1c0.6,0.3,1.1,0.5,1.5,0.6c0.4,0,0.8-0.1,1.1-0.2c0.4-0.2,0.7-0.5,1-0.8
		c0.5-0.6,0.7-1.3,0.6-1.9c-0.1-0.6-0.4-1.2-1-1.7l-3.3-2.5L178.1,29.7z"/>
</g>
<text transform="matrix(0.7423 0.6701 -0.8892 0.9849 178.2022 42.2914)" fill="#998147" font-family="'CenturySchoolbook'" font-size="11.0146">V</text>
<g>
	<defs>
		<rect id="SVGID_55_" x="0" y="0" width="234.7" height="222.7"/>
	</defs>
	<clipPath id="SVGID_56_">
		<use xlink:href="#SVGID_55_"  overflow="visible"/>
	</clipPath>
	<path clip-path="url(#SVGID_56_)" fill="none" stroke="#998147" stroke-width="0.955" d="M184.9,34.9l0.2,0.2
		c0.2,0.1,0.3,0.3,0.3,0.5c0,0.2,0,0.4-0.2,0.7l-4.2,8.9l0.3,0.3l7.7-4.9c0.4-0.3,0.8-0.5,1.1-0.5c0.3,0,0.5,0,0.6,0.1l0.2,0.2
		l0.4-0.4l-2.2-2l-0.4,0.4l0.4,0.4c0.2,0.1,0.2,0.3,0.2,0.5c0,0.2-0.1,0.4-0.3,0.6c-0.1,0.1-0.2,0.2-0.4,0.3l-5.9,3.8l3.2-6.7
		L186,37c0.1-0.2,0.2-0.3,0.2-0.4c0.1-0.1,0.2-0.1,0.3-0.1c0.1,0,0.3,0.1,0.4,0.2l0.4,0.4l0.4-0.4l-2.5-2.2L184.9,34.9z"/>
</g>
<text transform="matrix(0.6965 0.7176 -0.9521 0.9242 184.1972 47.8039)" fill="#998147" font-family="'CenturySchoolbook'" font-size="11.0146">I</text>
<g>
	<defs>
		<rect id="SVGID_57_" x="0" y="0" width="234.7" height="222.7"/>
	</defs>
	<clipPath id="SVGID_58_">
		<use xlink:href="#SVGID_57_"  overflow="visible"/>
	</clipPath>
	<path clip-path="url(#SVGID_58_)" fill="none" stroke="#998147" stroke-width="0.955" d="M191.6,41.1l0.4,0.4
		c0.2,0.2,0.3,0.4,0.3,0.5c0,0.1-0.1,0.2-0.3,0.5l-5.7,5.6c-0.2,0.2-0.4,0.3-0.5,0.4c-0.1,0-0.3-0.1-0.4-0.2l-0.5-0.5l-0.4,0.4
		l2.6,2.6l0.4-0.4l-0.5-0.5c-0.2-0.2-0.2-0.3-0.2-0.4c0-0.1,0.1-0.3,0.4-0.5l5.7-5.6c0.2-0.2,0.4-0.3,0.5-0.3c0.1,0,0.3,0.1,0.5,0.3
		l0.4,0.5l0.4-0.4l-2.6-2.6L191.6,41.1z"/>
</g>
<text transform="matrix(0.6477 0.7619 -1.011 0.8594 187.4282 51.0101)" fill="#998147" font-family="'CenturySchoolbook'" font-size="11.0146">C</text>
<g>
	<defs>
		<rect id="SVGID_59_" x="0" y="0" width="234.7" height="222.7"/>
	</defs>
	<clipPath id="SVGID_60_">
		<use xlink:href="#SVGID_59_"  overflow="visible"/>
	</clipPath>
	<path clip-path="url(#SVGID_60_)" fill="none" stroke="#998147" stroke-width="0.955" d="M198.9,48.3c-0.1-0.3-0.2-0.7-0.5-0.9
		c-0.4-0.5-0.9-0.8-1.6-0.9c-0.7-0.1-1.5,0-2.4,0.3c-0.9,0.3-1.8,0.8-2.6,1.5c-0.8,0.6-1.3,1.4-1.8,2.1c-0.4,0.8-0.6,1.5-0.6,2.2
		c0,0.7,0.2,1.3,0.7,1.8c0.5,0.6,1.2,0.9,2.1,0.9c0.9,0,1.8-0.4,2.8-1.1l-0.2-0.3c-0.9,0.6-1.7,0.9-2.4,1c-0.7,0-1.3-0.2-1.7-0.7
		c-0.5-0.6-0.6-1.2-0.3-2c0.3-0.9,1.1-1.9,2.3-2.9c1.4-1.2,2.6-1.9,3.5-2.1c0.9-0.2,1.5,0,2,0.5c0.4,0.5,0.5,1.1,0.2,1.9
		c-0.2,0.6-0.7,1.4-1.4,2.4l0.2,0.3l3.1-2.9l-0.2-0.3l-1,0.4C199,49.1,199,48.6,198.9,48.3z"/>
</g>
<text transform="matrix(0.5816 0.8135 -1.0794 0.7718 192.5854 57.2166)" fill="#998147" font-family="'CenturySchoolbook'" font-size="11.0146">E</text>
<g>
	<defs>
		<rect id="SVGID_61_" x="0" y="0" width="234.7" height="222.7"/>
	</defs>
	<clipPath id="SVGID_62_">
		<use xlink:href="#SVGID_61_"  overflow="visible"/>
	</clipPath>
	<path clip-path="url(#SVGID_62_)" fill="none" stroke="#998147" stroke-width="0.955" d="M201.2,51.9l0.4,0.5
		c0.1,0.1,0.1,0.3,0.1,0.4c0,0.1-0.1,0.2-0.3,0.3l-6.8,4.9c-0.1,0.1-0.3,0.2-0.4,0.1c-0.1,0-0.3-0.1-0.4-0.3l-0.3-0.4l-0.4,0.3
		l3.8,5.3l3.3-2.2l-0.2-0.3c-2,1.2-3.3,1.2-4.1,0.1l-0.7-1c-0.1-0.1-0.1-0.3-0.1-0.4c0-0.1,0.1-0.2,0.2-0.3l3.4-2.4l0.4,0.5
		c0.2,0.3,0.3,0.7,0.1,1.1c-0.2,0.4-0.6,0.8-1.2,1.3l0.2,0.3l4-2.8l-0.2-0.3c-0.6,0.4-1.1,0.6-1.5,0.6c-0.4,0-0.7-0.1-0.9-0.4
		l-0.4-0.6l3.1-2.2c0.2-0.1,0.3-0.2,0.4-0.2c0.1,0,0.2,0.1,0.3,0.2l0.9,1.3c0.3,0.4,0.3,0.9,0.2,1.4c-0.2,0.5-0.7,1.2-1.5,1.9
		l0.2,0.3l2.8-2.2l-3.7-5.1L201.2,51.9z"/>
</g>
<text transform="matrix(0.5326 0.8463 -1.123 0.7068 197.2531 63.7509)" fill="#998147" font-family="'CenturySchoolbook'" font-size="11.0146"> </text>
<text transform="matrix(0.4815 0.8764 -1.163 0.6389 199.057 66.4402)" fill="#998147" font-family="'CenturySchoolbook'" font-size="11.0146">C</text>
<g>
	<defs>
		<rect id="SVGID_63_" x="0" y="0" width="234.7" height="222.7"/>
	</defs>
	<clipPath id="SVGID_64_">
		<use xlink:href="#SVGID_63_"  overflow="visible"/>
	</clipPath>
	<path clip-path="url(#SVGID_64_)" fill="none" stroke="#998147" stroke-width="0.955" d="M210.8,66c0-0.4-0.1-0.7-0.3-1
		c-0.3-0.5-0.8-0.9-1.4-1.2c-0.7-0.2-1.5-0.3-2.5-0.2c-1,0.1-1.9,0.5-2.8,1c-0.9,0.5-1.6,1.1-2.2,1.8c-0.6,0.7-0.9,1.4-1,2.1
		c-0.1,0.7,0,1.3,0.3,1.9c0.4,0.7,1,1.1,1.9,1.3c0.9,0.1,1.9,0,3-0.5l-0.2-0.3c-1,0.4-1.9,0.6-2.6,0.4c-0.7-0.1-1.2-0.5-1.5-1
		c-0.4-0.6-0.3-1.3,0.1-2c0.5-0.8,1.4-1.6,2.8-2.4c1.7-0.9,2.9-1.4,3.8-1.4c0.9,0,1.5,0.3,1.8,0.9c0.3,0.5,0.2,1.2-0.2,1.9
		c-0.3,0.6-1,1.3-1.9,2.1l0.2,0.3l3.7-2.2l-0.2-0.3l-1.1,0.2C210.7,66.8,210.8,66.4,210.8,66z"/>
</g>
<text transform="matrix(0.4059 0.9139 -1.2127 0.5386 202.8371 73.4412)" fill="#998147" font-family="'CenturySchoolbook'" font-size="11.0147">E</text>
<g>
	<defs>
		<rect id="SVGID_65_" x="0" y="0" width="234.7" height="222.7"/>
	</defs>
	<clipPath id="SVGID_66_">
		<use xlink:href="#SVGID_65_"  overflow="visible"/>
	</clipPath>
	<path clip-path="url(#SVGID_66_)" fill="none" stroke="#998147" stroke-width="0.955" d="M212.3,70l0.3,0.6c0.1,0.1,0.1,0.3,0,0.4
		c-0.1,0.1-0.2,0.2-0.3,0.3l-7.6,3.4c-0.2,0.1-0.3,0.1-0.4,0.1c-0.1,0-0.2-0.2-0.3-0.3l-0.2-0.5l-0.5,0.2l2.7,6l3.6-1.5l-0.2-0.4
		c-2.2,0.7-3.5,0.5-4-0.7l-0.5-1.1c-0.1-0.2-0.1-0.3,0-0.4c0-0.1,0.1-0.2,0.3-0.2l3.8-1.7l0.3,0.6c0.2,0.4,0.1,0.7-0.1,1.1
		c-0.2,0.4-0.7,0.7-1.4,1l0.1,0.3l4.5-2l-0.2-0.3c-0.7,0.3-1.2,0.4-1.6,0.3c-0.4-0.1-0.7-0.3-0.8-0.6l-0.3-0.6l3.4-1.5
		c0.2-0.1,0.3-0.1,0.4-0.1c0.1,0,0.2,0.1,0.2,0.2l0.6,1.4c0.2,0.5,0.2,0.9-0.1,1.4c-0.3,0.5-0.9,1-1.9,1.6l0.1,0.3l3.2-1.6l-2.6-5.8
		L212.3,70z"/>
</g>
<text transform="matrix(0.3219 0.9468 -1.2563 0.4272 206.1257 80.7821)" fill="#998147" font-family="'CenturySchoolbook'" font-size="11.0147">N</text>
<g>
	<defs>
		<rect id="SVGID_67_" x="0" y="0" width="234.7" height="222.7"/>
	</defs>
	<clipPath id="SVGID_68_">
		<use xlink:href="#SVGID_67_"  overflow="visible"/>
	</clipPath>
	<path clip-path="url(#SVGID_68_)" fill="none" stroke="#998147" stroke-width="0.955" d="M215.8,78l0.1,0.3c0.1,0.2,0.1,0.3,0,0.4
		c0,0.1-0.1,0.3-0.3,0.5l-0.1,0.1l-6.8,2.3c-0.4,0.1-0.8,0.2-1.2,0.1c-0.4-0.1-0.6-0.3-0.8-0.7l-0.5,0.2l1,2.9l0.5-0.2
		c-0.1-0.4-0.1-0.8,0.1-1.1c0.2-0.3,0.6-0.5,1.1-0.7l6-2.1l-6.6,7.5l0.2,0.5l7.9-2.7c0.3-0.1,0.6-0.2,0.9-0.1c0.3,0,0.5,0.1,0.7,0.2
		c0.1,0.1,0.3,0.3,0.4,0.6l0.5-0.2L218,83l-0.5,0.2c0.1,0.4,0.1,0.7-0.1,0.9c-0.2,0.3-0.6,0.5-1.2,0.7l-5.7,1.9l6.3-7.2l-0.6-1.8
		L215.8,78z"/>
</g>
<text transform="matrix(0.2385 0.9711 -1.2886 0.3165 208.9735 89.3921)" fill="#998147" font-family="'CenturySchoolbook'" font-size="11.0146">T</text>
<g>
	<defs>
		<rect id="SVGID_69_" x="0" y="0" width="234.7" height="222.7"/>
	</defs>
	<clipPath id="SVGID_70_">
		<use xlink:href="#SVGID_69_"  overflow="visible"/>
	</clipPath>
	<path clip-path="url(#SVGID_70_)" fill="none" stroke="#998147" stroke-width="0.955" d="M215.4,88.1l0.1,0.4c1.2-0.2,2-0.2,2.6,0
		c0.7,0.2,1.1,0.5,1.3,1c0,0.2,0,0.3,0,0.4c-0.1,0.1-0.2,0.2-0.4,0.2l-8.3,2c-0.1,0-0.2,0-0.3,0c-0.1,0-0.2-0.1-0.2-0.2L210,91
		l-0.5,0.1l0.9,3.6l0.5-0.1l-0.2-0.8c0-0.2,0-0.3,0-0.4c0.1-0.1,0.2-0.2,0.3-0.2l8.2-2c0.2-0.1,0.4-0.1,0.5,0
		c0.1,0.1,0.2,0.2,0.2,0.4c0.2,1-0.7,1.9-3,2.7l0.1,0.4l3.8-1.1l-1.5-6.3L215.4,88.1z"/>
</g>
<text transform="matrix(0.1586 0.9873 -1.3101 0.2104 210.7273 96.5244)" fill="#998147" font-family="'CenturySchoolbook'" font-size="11.0146">R</text>
<g>
	<defs>
		<rect id="SVGID_71_" x="0" y="0" width="234.7" height="222.7"/>
	</defs>
	<clipPath id="SVGID_72_">
		<use xlink:href="#SVGID_71_"  overflow="visible"/>
	</clipPath>
	<path clip-path="url(#SVGID_72_)" fill="none" stroke="#998147" stroke-width="0.955" d="M220.6,97.7c0.2,0,0.3,0,0.4,0.1
		s0.2,0.3,0.2,0.8c0.1,0.6,0.1,1.1,0,1.3c-0.1,0.2-0.3,0.4-0.6,0.6c-0.3,0.2-0.7,0.3-1.3,0.4c-0.8,0.1-1.4,0-1.7-0.3
		c-0.4-0.3-0.6-0.8-0.7-1.4l-0.2-0.9L220.6,97.7z M220.7,95.2l0.1,0.8c0,0.2,0,0.3-0.1,0.4c-0.1,0.1-0.2,0.2-0.4,0.2l-8.3,1.3
		c-0.2,0-0.3,0-0.4-0.1c-0.1-0.1-0.2-0.2-0.2-0.4l-0.1-0.8l-0.5,0.1l0.6,3.6l0.5-0.1l-0.1-0.8c0-0.2,0-0.3,0.1-0.4
		c0.1-0.1,0.2-0.1,0.4-0.2l4.1-0.7l0.1,0.6c0.1,0.3,0,0.6-0.1,0.9c-0.1,0.3-0.3,0.5-0.5,0.6c-0.2,0.2-0.7,0.3-1.3,0.5
		c-1.1,0.3-1.7,0.5-2,0.6c-0.3,0.2-0.6,0.3-0.7,0.6c-0.1,0.2-0.2,0.5-0.2,0.7c0.1,0.8,1,1.1,2.6,0.9l-0.1-0.4
		c-0.5,0.1-0.9,0.1-1.2,0c-0.2-0.1-0.4-0.1-0.4-0.3c0-0.1,0.1-0.2,0.2-0.3c0.2-0.2,0.6-0.3,1.2-0.5c0.8-0.3,1.4-0.5,1.6-0.7
		c0.3-0.2,0.5-0.4,0.6-0.6c0.1-0.2,0.3-0.6,0.4-1.1c0.2,0.7,0.4,1.2,0.7,1.5c0.3,0.3,0.6,0.5,1,0.6c0.4,0.1,0.8,0.1,1.3,0.1
		c0.8-0.1,1.4-0.4,1.8-1c0.4-0.5,0.5-1.2,0.4-1.9l-0.7-4.1L220.7,95.2z"/>
</g>
<text transform="matrix(7.505000e-02 0.9972 -1.3232 9.958535e-02 212.0736 104.4407)" fill="#998147" font-family="'CenturySchoolbook'" font-size="11.0147">E</text>
<g>
	<defs>
		<rect id="SVGID_73_" x="0" y="0" width="234.7" height="222.7"/>
	</defs>
	<clipPath id="SVGID_74_">
		<use xlink:href="#SVGID_73_"  overflow="visible"/>
	</clipPath>
	<path clip-path="url(#SVGID_74_)" fill="none" stroke="#998147" stroke-width="0.955" d="M222.1,104.4l0,0.6c0,0.2,0,0.3-0.1,0.4
		c-0.1,0.1-0.2,0.1-0.4,0.1l-8.3,0.6c-0.2,0-0.3,0-0.4-0.1c-0.1-0.1-0.2-0.2-0.2-0.4l0-0.5l-0.5,0l0.5,6.5l3.9-0.2l0-0.4
		c-2.3,0-3.5-0.7-3.6-2l-0.1-1.2c0-0.2,0-0.3,0.1-0.4c0.1-0.1,0.2-0.1,0.3-0.1l4.2-0.3l0,0.6c0,0.4-0.1,0.7-0.5,1
		c-0.3,0.3-0.9,0.4-1.7,0.5l0,0.4l4.9-0.4l0-0.4c-0.7,0-1.3,0-1.6-0.2c-0.4-0.2-0.6-0.5-0.6-0.8L218,107l3.8-0.3
		c0.2,0,0.3,0,0.4,0.1c0.1,0.1,0.1,0.1,0.2,0.3l0.1,1.6c0,0.5-0.2,0.9-0.6,1.3c-0.4,0.3-1.2,0.6-2.3,0.9l0,0.4l3.5-0.4l-0.5-6.3
		L222.1,104.4z"/>
</g>
<rect x="32.7" y="69.7" transform="matrix(0.7071 -0.7071 0.7071 0.7071 -30.4256 75.2767)" fill="#010101" width="86" height="9.4"/>
<rect x="43.6" y="117.4" transform="matrix(0.7071 -0.7071 0.7071 0.7071 -71.5121 71.5452)" fill="#010101" width="13.9" height="9.4"/>
<rect x="81.1" y="97.7" transform="matrix(0.7071 -0.7071 0.7071 0.7071 -46.6444 92.2361)" fill="#010101" width="13.9" height="9.4"/>
<rect x="98.3" y="70" transform="matrix(0.7071 -0.7071 0.7071 0.7071 -19.0345 103.4204)" fill="#010101" width="34" height="9.4"/>
<rect x="101.5" y="142.5" transform="matrix(0.7071 -0.7071 0.7071 0.7071 -69.0715 127.5307)" fill="#010101" width="35.8" height="9.4"/>
<rect x="133.5" y="117.9" transform="matrix(0.7071 -0.7071 0.7071 0.7071 -44.4088 137.9981)" fill="#010101" width="21.8" height="9.4"/>
<rect x="173.8" y="92.5" transform="matrix(0.7071 -0.7071 0.7071 0.7071 -15.8642 156.1189)" fill="#010101" width="13.5" height="9.4"/>
<rect x="162.9" y="124.2" transform="matrix(0.7071 -0.7071 0.7071 0.7071 -38.958 163.6816)" fill="#010101" width="30.3" height="9.4"/>
<rect x="121" y="156.9" transform="matrix(0.7071 -0.7071 0.7071 0.7071 -71.5116 150.4493)" fill="#010101" width="49.8" height="9.4"/>
<rect x="99.8" y="160.5" transform="matrix(0.7071 -0.7071 0.7071 0.7071 -82.2503 131.8287)" fill="#010101" width="36.4" height="9.4"/>
<rect x="94.9" y="48.4" transform="matrix(0.7071 -0.7071 0.7071 0.7071 -4.3539 95.6477)" fill="#010101" width="36.7" height="9.4"/>
<rect x="117.4" y="48.9" transform="matrix(-0.7071 -0.7071 0.7071 -0.7071 189.4191 185.6913)" fill="#010101" width="31.6" height="9.4"/>
<rect x="150.3" y="76.7" transform="matrix(-0.7071 -0.7071 0.7071 -0.7071 228.5293 257.3629)" fill="#010101" width="34.6" height="9.4"/>
<rect x="115.9" y="93.1" transform="matrix(-0.7071 -0.7071 0.7071 -0.7071 178.1749 269.399)" fill="#010101" width="58" height="9.4"/>
<rect x="157" y="106.7" transform="matrix(-0.7071 -0.7071 0.7071 -0.7071 221.0839 314.2611)" fill="#010101" width="37.3" height="9.4"/>
<rect x="45" y="109.5" transform="matrix(-0.7071 -0.7071 0.7071 -0.7071 23.847 238.1561)" fill="#010101" width="32.5" height="9.4"/>
<rect x="60.4" y="108.6" transform="matrix(-0.7071 -0.7071 0.7071 -0.7071 54.9209 249.3078)" fill="#010101" width="37.3" height="9.4"/>
<rect x="36.2" y="148.1" transform="matrix(-0.7071 -0.7071 0.7071 -0.7071 25.1381 315.9922)" fill="#010101" width="83.6" height="9.4"/>
<rect x="114.8" y="59" transform="matrix(-0.7071 -0.7071 0.7071 -0.7071 162.8194 194.8869)" fill="#010101" width="13.9" height="9.4"/>
<rect x="98.3" y="59.9" transform="matrix(-0.7071 -0.7071 0.7071 -0.7071 133.9502 184.6488)" fill="#010101" width="13.9" height="9.4"/>
<rect x="136.4" y="132.8" transform="matrix(-0.7071 -0.7071 0.7071 -0.7071 159.4882 340.996)" fill="#010101" width="27.9" height="9.4"/>
<rect x="122.6" y="169.1" transform="matrix(-0.7071 -0.7071 0.7071 -0.7071 98.1942 388.2782)" fill="#010101" width="13.9" height="9.4"/>
<rect x="97.8" y="132.8" transform="matrix(-0.7071 -0.7071 0.7071 -0.7071 84.2479 309.8315)" fill="#010101" width="17" height="9.4"/>
<text transform="matrix(0.7487 0.6629 -0.8796 0.9935 44.6177 184.0297)" fill="#998147" font-family="'STSongti-TC-Bold'" font-size="11.0146">渥</text>
<text transform="matrix(0.7945 0.6073 -0.8058 1.0542 53.5334 191.6399)" fill="#998147" font-family="'STSongti-TC-Bold'" font-size="11.0146"> </text>
<text transform="matrix(0.8363 0.5482 -0.7275 1.1097 56.1771 193.8153)" fill="#998147" font-family="'STSongti-TC-Bold'" font-size="11.0147">太</text>
<text transform="matrix(0.8738 0.4863 -0.6453 1.1595 66.0628 200.0587)" fill="#998147" font-family="'STSongti-TC-Bold'" font-size="11.0146"> </text>
<text transform="matrix(0.9067 0.4217 -0.5595 1.2032 69.0513 201.874)" fill="#998147" font-family="'STSongti-TC-Bold'" font-size="11.0146">華</text>
<text transform="matrix(0.9351 0.3545 -0.4704 1.2408 79.666 206.7012)" fill="#998147" font-family="'STSongti-TC-Bold'" font-size="11.0146"> </text>
<text transform="matrix(0.9585 0.2851 -0.3784 1.2718 82.8574 208.0302)" fill="#998147" font-family="'STSongti-TC-Bold'" font-size="11.0146">華</text>
<text transform="matrix(0.9767 0.2146 -0.2848 1.296 94.0712 211.176)" fill="#998147" font-family="'STSongti-TC-Bold'" font-size="11.0146"> </text>
<text transform="matrix(0.9897 0.1431 -0.1898 1.3133 97.4505 211.9717)" fill="#998147" font-family="'STSongti-TC-Bold'" font-size="11.0147">人</text>
<text transform="matrix(0.9975 7.135000e-02 -9.466248e-02 1.3235 109.0806 213.514)" fill="#998147" font-family="'STSongti-TC-Bold'" font-size="11.0147"> </text>
<text transform="matrix(0.9999 1.620000e-02 -2.149610e-02 1.3267 112.4872 213.8492)" fill="#998147" font-family="'STSongti-TC-Bold'" font-size="11.0146">社</text>
<text transform="matrix(0.9975 -7.113001e-02 9.439639e-02 1.3236 124.2308 213.7775)" fill="#998147" font-family="'STSongti-TC-Bold'" font-size="11.0147"> </text>
<text transform="matrix(0.9897 -0.1429 0.1896 1.3133 127.5957 213.6431)" fill="#998147" font-family="'STSongti-TC-Bold'" font-size="11.0146">區</text>
<text transform="matrix(0.9767 -0.2144 0.2845 1.2961 139.1864 211.8243)" fill="#998147" font-family="'STSongti-TC-Bold'" font-size="11.0145"> </text>
<text transform="matrix(0.9585 -0.2851 0.3784 1.2718 142.6237 211.1717)" fill="#998147" font-family="'STSongti-TC-Bold'" font-size="11.0146">服</text>
<text transform="matrix(0.9351 -0.3543 0.4701 1.2409 153.7291 207.6104)" fill="#998147" font-family="'STSongti-TC-Bold'" font-size="11.0146"> </text>
<text transform="matrix(0.9068 -0.4215 0.5593 1.2033 157.0259 206.5433)" fill="#998147" font-family="'STSongti-TC-Bold'" font-size="11.0147">務</text>
<text transform="matrix(0.8738 -0.4863 0.6453 1.1595 167.6068 201.4247)" fill="#998147" font-family="'STSongti-TC-Bold'" font-size="11.0146"> </text>
<text transform="matrix(0.8363 -0.5482 0.7275 1.1097 170.6261 199.8724)" fill="#998147" font-family="'STSongti-TC-Bold'" font-size="11.0147">中</text>
<text transform="matrix(0.7946 -0.6071 0.8056 1.0544 180.3448 193.3377)" fill="#998147" font-family="'STSongti-TC-Bold'" font-size="11.0146"> </text>
<text transform="matrix(0.7489 -0.6627 0.8794 0.9937 183.1518 191.3486)" fill="#998147" font-family="'STSongti-TC-Bold'" font-size="11.0147">心</text>
</svg>
