<?xml version="1.0" encoding="utf-8"?>
<!-- Generator: Adobe Illustrator 18.1.0, SVG Export Plug-In . SVG Version: 6.00 Build 0)  -->
<!DOCTYPE svg PUBLIC "-//W3C//DTD SVG 1.1//EN" "http://www.w3.org/Graphics/SVG/1.1/DTD/svg11.dtd">
<svg version="1.1" id="Layer_1" xmlns="http://www.w3.org/2000/svg" xmlns:xlink="http://www.w3.org/1999/xlink" x="0px" y="0px"
	 viewBox="0 0 482.9 636" enable-background="new 0 0 482.9 636" xml:space="preserve">
<g>
	<path fill="#EC1C24" d="M422,158c0,28.4,23,51.3,51.3,51.3v33.2c0,25.2-20.4,45.7-45.7,45.7h-19.4c0-28.4-23-51.3-51.3-51.3
		c-28.4,0-51.3,23-51.3,51.3h-19.4c-25.2,0-45.7-20.4-45.7-45.7v-19.4c28.1-0.2,50.9-23.1,50.9-51.3c0-28.2-22.8-51.1-50.9-51.3V101
		c0-25.2,20.4-45.7,45.7-45.7h19.4c0,28.4,23,51.3,51.3,51.3c28.4,0,51.3-23,51.3-51.3h19.4c25.2,0,45.7,20.4,45.7,45.7v5.7
		C445,106.7,422,129.7,422,158z"/>
	<path fill="none" stroke="#FFFFFF" stroke-width="6" stroke-miterlimit="10" d="M422,158c0,28.4,23,51.3,51.3,51.3v33.2
		c0,25.2-20.4,45.7-45.7,45.7h-19.4c0-28.4-23-51.3-51.3-51.3c-28.4,0-51.3,23-51.3,51.3h-19.4c-25.2,0-45.7-20.4-45.7-45.7v-19.4
		c28.1-0.2,50.9-23.1,50.9-51.3c0-28.2-22.8-51.1-50.9-51.3V101c0-25.2,20.4-45.7,45.7-45.7h19.4c0,28.4,23,51.3,51.3,51.3
		c28.4,0,51.3-23,51.3-51.3h19.4c25.2,0,45.7,20.4,45.7,45.7v5.7C445,106.7,422,129.7,422,158z"/>
</g>
<g>
	<path fill="#EC1C24" d="M408.2,55.3c0,28.4-23,51.3-51.3,51.3c-28.4,0-51.3-23-51.3-51.3S328.5,4,356.9,4
		C385.2,4,408.2,27,408.2,55.3z"/>
	<path fill="none" stroke="#FFFFFF" stroke-width="8" stroke-miterlimit="10" d="M408.2,55.3c0,28.4-23,51.3-51.3,51.3
		c-28.4,0-51.3-23-51.3-51.3S328.5,4,356.9,4C385.2,4,408.2,27,408.2,55.3z"/>
</g>
<g>
	<path fill="#F7941E" d="M291.3,171.8c0,28.2-22.8,51.1-50.9,51.3H240c-1.2,0-2.4,0-3.6-0.1v19.5c0,25.2-20.4,45.7-45.7,45.7h-19.5
		c-1-27.5-23.6-49.5-51.3-49.5c-27.7,0-50.3,22-51.3,49.5H49.2c-25.2,0-45.7-20.4-45.7-45.7v-19.4c28.4,0,51.3-23,51.3-51.3
		c0-28.4-23-51.3-51.3-51.3V101c0-25.2,20.4-45.7,45.7-45.7h19.4c0,28.4,23,51.3,51.3,51.3c28.4,0,51.3-23,51.3-51.3h19.4
		c25.2,0,45.7,20.4,45.7,45.7v19.5c1.2-0.1,2.4-0.1,3.6-0.1h0.5C268.5,120.7,291.3,143.6,291.3,171.8z"/>
	<path fill="none" stroke="#FFFFFF" stroke-width="6" stroke-miterlimit="10" d="M291.3,171.8c0,28.2-22.8,51.1-50.9,51.3H240
		c-1.2,0-2.4,0-3.6-0.1v19.5c0,25.2-20.4,45.7-45.7,45.7h-19.5c-1-27.5-23.6-49.5-51.3-49.5c-27.7,0-50.3,22-51.3,49.5H49.2
		c-25.2,0-45.7-20.4-45.7-45.7v-19.4c28.4,0,51.3-23,51.3-51.3c0-28.4-23-51.3-51.3-51.3V101c0-25.2,20.4-45.7,45.7-45.7h19.4
		c0,28.4,23,51.3,51.3,51.3c28.4,0,51.3-23,51.3-51.3h19.4c25.2,0,45.7,20.4,45.7,45.7v19.5c1.2-0.1,2.4-0.1,3.6-0.1h0.5
		C268.5,120.7,291.3,143.6,291.3,171.8z"/>
</g>
<g>
	<path fill="#F7941E" d="M171.3,55.3c0,28.4-23,51.3-51.3,51.3c-28.4,0-51.3-23-51.3-51.3S91.6,4,119.9,4
		C148.3,4,171.3,27,171.3,55.3z"/>
	<path fill="none" stroke="#FFFFFF" stroke-width="8" stroke-miterlimit="10" d="M171.3,55.3c0,28.4-23,51.3-51.3,51.3
		c-28.4,0-51.3-23-51.3-51.3S91.6,4,119.9,4C148.3,4,171.3,27,171.3,55.3z"/>
</g>
<g>
	<path fill="#00AEEF" d="M188.4,408.9c0,27.2,21.1,49.4,47.8,51.2v19.5c0,25.2-20.4,45.7-45.7,45.7h-19.4c0-28.4-23-51.3-51.3-51.3
		c-28.4,0-51.3,23-51.3,51.3H48.9c-25.2,0-45.7-20.4-45.7-45.7v-19.4c28.4,0,51.3-23,51.3-51.3c0-28.4-23-51.3-51.3-51.3v-19.4
		c0-25.2,20.4-45.7,45.7-45.7h19.4c0.7,27.7,23.4,50,51.3,50c27.9,0,50.6-22.3,51.3-50h19.4c25.2,0,45.7,20.4,45.7,45.7v19.5
		C209.5,359.5,188.4,381.8,188.4,408.9z"/>
	<path fill="none" stroke="#FFFFFF" stroke-width="6" stroke-miterlimit="10" d="M188.4,408.9c0,27.2,21.1,49.4,47.8,51.2v19.5
		c0,25.2-20.4,45.7-45.7,45.7h-19.4c0-28.4-23-51.3-51.3-51.3c-28.4,0-51.3,23-51.3,51.3H48.9c-25.2,0-45.7-20.4-45.7-45.7v-19.4
		c28.4,0,51.3-23,51.3-51.3c0-28.4-23-51.3-51.3-51.3v-19.4c0-25.2,20.4-45.7,45.7-45.7h19.4c0.7,27.7,23.4,50,51.3,50
		c27.9,0,50.6-22.3,51.3-50h19.4c25.2,0,45.7,20.4,45.7,45.7v19.5C209.5,359.5,188.4,381.8,188.4,408.9z"/>
</g>
<g>
	<g>
		<path fill="#EC1C24" d="M41.9,542.9l0,23.4c-1.8,0-3.4,0.1-4.3,0.1c-1.8,0-3.3,0.7-4.6,2c-1.3,1.3-1.9,2.9-1.9,4.8
			c0,1.6,0.7,3.6,2.1,6.1l1.8,3.2c3.3,5.7,4.9,11.2,4.9,16.5c0,7.8-2.8,14.4-8.3,19.7c-5.5,5.4-12.3,8.1-20.2,8.1
			c-3.8,0-7.6-0.9-11.4-2.6v-23.1c2.3,1.4,4.3,2.2,6,2.2c2.1,0,3.8-0.6,5.2-1.8c1.4-1.2,2.1-2.7,2.1-4.5c0-1.2-1.1-3.7-3.3-7.7
			c-3.6-6.2-5.3-12.5-5.3-18.8c0-7.5,2.7-14,8.1-19.5c5.4-5.4,11.8-8.2,19.2-8.2C35.2,542.9,37,542.9,41.9,542.9z"/>
	</g>
</g>
<path fill="#FFFFFF" d="M30.4,568.8c0,8.4,4.8,15.3,10.7,15.3s13.5-30.7,0.7-30.7C35.9,553.4,30.4,560.4,30.4,568.8z"/>
<g>
	<path fill="#009444" d="M422,407.9c0,28.4,23,51.3,51.3,51.3v19.4c0,25.2-20.4,45.7-45.7,45.7h-19.4c0-28.4-23-51.3-51.3-51.3
		c-28.4,0-51.3,23-51.3,51.3h-19.4c-25.2,0-45.7-20.4-45.7-45.7v-19.4H240c-1.2,0-2.4,0-3.6-0.1c-26.7-1.8-47.8-24.1-47.8-51.2
		c0-27.2,21.1-49.4,47.8-51.2c1.2-0.1,2.4-0.1,3.6-0.1h0.5v-19.4c0-25.2,20.4-45.7,45.7-45.7h19.5c1.6,26.9,24,48.2,51.2,48.2
		c27.3,0,49.6-21.3,51.2-48.2h19.5c25.2,0,45.7,20.4,45.7,45.7v19.4C445,356.5,422,379.5,422,407.9z"/>
	<path fill="none" stroke="#FFFFFF" stroke-width="6" stroke-miterlimit="10" d="M422,407.9c0,28.4,23,51.3,51.3,51.3v19.4
		c0,25.2-20.4,45.7-45.7,45.7h-19.4c0-28.4-23-51.3-51.3-51.3c-28.4,0-51.3,23-51.3,51.3h-19.4c-25.2,0-45.7-20.4-45.7-45.7v-19.4
		H240c-1.2,0-2.4,0-3.6-0.1c-26.7-1.8-47.8-24.1-47.8-51.2c0-27.2,21.1-49.4,47.8-51.2c1.2-0.1,2.4-0.1,3.6-0.1h0.5v-19.4
		c0-25.2,20.4-45.7,45.7-45.7h19.5c1.6,26.9,24,48.2,51.2,48.2c27.3,0,49.6-21.3,51.2-48.2h19.5c25.2,0,45.7,20.4,45.7,45.7v19.4
		C445,356.5,422,379.5,422,407.9z"/>
</g>
<g>
	<path fill="#009444" d="M408.2,289.9c0,1.1,0,2.1-0.1,3.2c-1.6,26.9-23.9,48.2-51.2,48.2c-27.3,0-49.6-21.3-51.2-48.2
		c-0.1-1.1-0.1-2.1-0.1-3.2c0-28.4,23-51.3,51.3-51.3C385.2,238.6,408.2,261.6,408.2,289.9z"/>
	<path fill="none" stroke="#FFFFFF" stroke-width="8" stroke-miterlimit="10" d="M408.2,289.9c0,1.1,0,2.1-0.1,3.2
		c-1.6,26.9-23.9,48.2-51.2,48.2c-27.3,0-49.6-21.3-51.2-48.2c-0.1-1.1-0.1-2.1-0.1-3.2c0-28.4,23-51.3,51.3-51.3
		C385.2,238.6,408.2,261.6,408.2,289.9z"/>
</g>
<g>
	<path fill="#00AEEF" d="M171.3,291.4c0,0.4,0,0.9,0,1.3c-0.7,27.7-23.4,50-51.3,50c-27.9,0-50.6-22.3-51.3-50c0-0.4,0-0.9,0-1.3
		c0-0.6,0-1.2,0-1.9c1-27.5,23.6-49.5,51.3-49.5c27.7,0,50.3,22,51.3,49.5C171.3,290.2,171.3,290.8,171.3,291.4z"/>
	<path fill="none" stroke="#FFFFFF" stroke-width="8" stroke-miterlimit="10" d="M171.3,291.4c0,0.4,0,0.9,0,1.3
		c-0.7,27.7-23.4,50-51.3,50c-27.9,0-50.6-22.3-51.3-50c0-0.4,0-0.9,0-1.3c0-0.6,0-1.2,0-1.9c1-27.5,23.6-49.5,51.3-49.5
		c27.7,0,50.3,22,51.3,49.5C171.3,290.2,171.3,290.8,171.3,291.4z"/>
</g>
<g>
	<text transform="matrix(1 0 0 1 39.3079 579.5217)"><tspan x="0" y="0" fill="#EC1C24" font-family="'Bauhaus93'" font-size="55" letter-spacing="-3">TRO</tspan><tspan x="92.7" y="0" fill="#EC1C24" font-family="'Bauhaus93'" font-size="55" letter-spacing="-4">N</tspan><tspan x="120.7" y="0" fill="#EC1C24" font-family="'Bauhaus93'" font-size="55" letter-spacing="-3">G</tspan><tspan x="151.1" y="0" fill="#EC1C24" font-family="'Bauhaus93'" font-size="55" letter-spacing="-5">E</tspan><tspan x="172.1" y="0" fill="#EC1C24" font-family="'Bauhaus93'" font-size="55" letter-spacing="-3">R </tspan><tspan x="212.2" y="0" fill="#EC1C24" font-family="'Bauhaus93'" font-size="55" letter-spacing="-2">T</tspan><tspan x="238.3" y="0" fill="#EC1C24" font-family="'Bauhaus93'" font-size="55" letter-spacing="-3">OG</tspan><tspan x="306.8" y="0" fill="#EC1C24" font-family="'Bauhaus93'" font-size="55" letter-spacing="-2">E</tspan><tspan x="331.1" y="0" fill="#EC1C24" font-family="'Bauhaus93'" font-size="55" letter-spacing="-3">T</tspan><tspan x="356.1" y="0" fill="#EC1C24" font-family="'Bauhaus93'" font-size="55" letter-spacing="-5">HE</tspan><tspan x="405.7" y="0" fill="#EC1C24" font-family="'Bauhaus93'" font-size="55" letter-spacing="-3">R</tspan></text>
</g>
<g>
	<text transform="matrix(1 0 0 1 44.3098 621.7792)"><tspan x="0" y="0" fill="#ED1C24" stroke="#FFFFFF" stroke-width="0.75" stroke-miterlimit="10" font-family="'FZCCHFW--GB1-0'" font-size="50" letter-spacing="6">同 </tspan><tspan x="78.6" y="0" fill="#ED1C24" stroke="#FFFFFF" stroke-width="0.75" stroke-miterlimit="10" font-family="'FZCCHFW--GB1-0'" font-size="50"> </tspan><tspan x="95.2" y="0" fill="#ED1C24" stroke="#FFFFFF" stroke-width="0.75" stroke-miterlimit="10" font-family="'FZCCHFW--GB1-0'" font-size="50" letter-spacing="5">协</tspan><tspan x="150.2" y="0" fill="#ED1C24" stroke="#FFFFFF" stroke-width="0.75" stroke-miterlimit="10" font-family="'FZCCHFW--GB1-0'" font-size="50" letter-spacing="11">力</tspan><tspan x="211.2" y="0" fill="#ED1C24" stroke="#FFFFFF" stroke-width="0.75" stroke-miterlimit="10" font-family="'FZCCHFW--GB1-0'" font-size="50" letter-spacing="7">共建社</tspan><tspan x="382.2" y="0" fill="#ED1C24" stroke="#FFFFFF" stroke-width="0.75" stroke-miterlimit="10" font-family="'FZCCHFW--GB1-0'" font-size="50" letter-spacing="6">区</tspan></text>
</g>
<g>
	
		<text transform="matrix(1 0 0 1 84.0542 621.1727)" fill="#ED1C24" stroke="#FFFFFF" stroke-width="0.5" stroke-miterlimit="10" font-family="'Webdings'" font-size="63"></text>
</g>
<rect x="42.5" y="553.4" fill="#FFFFFF" width="5.5" height="24.7"/>
</svg>
